<svg xmlns="http://www.w3.org/2000/svg" xmlns:xlink="http://www.w3.org/1999/xlink" width="307.501" height="520.627" viewBox="0 0 307.501 520.627">
  <defs>
    <linearGradient id="linear-gradient" y1="0.499" x2="1" y2="0.499" gradientUnits="objectBoundingBox">
      <stop offset="0" stop-color="#fff" stop-opacity="0"/>
      <stop offset="0.504" stop-color="#1a4570" stop-opacity="0.969"/>
      <stop offset="1" stop-color="#12426d"/>
    </linearGradient>
  </defs>
  <g id="tick" transform="translate(0 0)">
    <path id="Path_24126" data-name="Path 24126" d="M0,264.653,214.15,50.231S265.536-10.88,329.33,66.494c0,0,10.814,14.586,23.221,1.593,0,0,10.227-6.455-4.024-22.634,0,0-64.129-90.367-154.412-16.263L0,223.908Z" transform="translate(0 520.627) rotate(-90)" fill="#12426d"/>
    <path id="Path_24127" data-name="Path 24127" d="M41.2,12.731,3.226,49.616s-8.131,8.634,1.425,20.37c0,0,10.311,7.293,20.119-1.928L54.7,37.293s28.753-25.4,52.561,4.443L336.528,270.923V231.775L137.435,32.683S110.778-.43,84.456.157C84.54.157,59.643-2.358,41.2,12.731Z" transform="translate(36.578 336.528) rotate(-90)" fill="#54a0d4"/>
    <path id="Path_24128" data-name="Path 24128" d="M107.72,26.035,0,135.6l19.113,19.113L145.694,28.13,197,79.936s12.574,14.67,22.634,3.353c0,0,9.64-11.317-.419-18.861L169.585,14.8s-17.772-29.508-45.1-5.2Z" transform="translate(77.176 402.209) rotate(-90)" fill="url(#linear-gradient)"/>
  </g>
</svg>
